0
SECTION
2
HEADER
9
$ACADVER
1
AC1009
9
$INSUNITS
70
4
0
ENDSEC
0
SECTION
2
TABLES
0
TABLE
2
LAYER
70
1
0
LAYER
2
ENGRAVE_HATCH
70
0
62
7
6
CONTINUOUS
0
ENDTAB
0
ENDSEC
0
SECTION
2
ENTITIES
0
LINE
8
ENGRAVE_HATCH
10
0.000000
20
17.475000
30
0.0
11
20.000000
21
17.475000
31
0.0
0
LINE
8
ENGRAVE_HATCH
10
0.000000
20
17.675000
30
0.0
11
20.000000
21
17.675000
31
0.0
0
LINE
8
ENGRAVE_HATCH
10
0.000000
20
17.875000
30
0.0
11
20.000000
21
17.875000
31
0.0
0
LINE
8
ENGRAVE_HATCH
10
0.000000
20
18.075000
30
0.0
11
20.000000
21
18.075000
31
0.0
0
LINE
8
ENGRAVE_HATCH
10
0.000000
20
18.275000
30
0.0
11
20.000000
21
18.275000
31
0.0
0
LINE
8
ENGRAVE_HATCH
10
0.000000
20
18.475000
30
0.0
11
20.000000
21
18.475000
31
0.0
0
LINE
8
ENGRAVE_HATCH
10
0.000000
20
18.675000
30
0.0
11
20.000000
21
18.675000
31
0.0
0
LINE
8
ENGRAVE_HATCH
10
0.000000
20
18.875000
30
0.0
11
20.000000
21
18.875000
31
0.0
0
LINE
8
ENGRAVE_HATCH
10
0.000000
20
19.075000
30
0.0
11
20.000000
21
19.075000
31
0.0
0
LINE
8
ENGRAVE_HATCH
10
0.000000
20
19.275000
30
0.0
11
20.000000
21
19.275000
31
0.0
0
LINE
8
ENGRAVE_HATCH
10
0.000000
20
19.475000
30
0.0
11
20.000000
21
19.475000
31
0.0
0
LINE
8
ENGRAVE_HATCH
10
0.000000
20
19.675000
30
0.0
11
20.000000
21
19.675000
31
0.0
0
LINE
8
ENGRAVE_HATCH
10
0.000000
20
19.875000
30
0.0
11
20.000000
21
19.875000
31
0.0
0
LINE
8
ENGRAVE_HATCH
10
0.000000
20
20.000000
30
0.0
11
20.000000
21
20.000000
31
0.0
0
LINE
8
ENGRAVE_HATCH
10
0.000000
20
14.975000
30
0.0
11
2.525000
21
14.975000
31
0.0
0
LINE
8
ENGRAVE_HATCH
10
0.000000
20
15.175000
30
0.0
11
2.525000
21
15.175000
31
0.0
0
LINE
8
ENGRAVE_HATCH
10
0.000000
20
15.375000
30
0.0
11
2.525000
21
15.375000
31
0.0
0
LINE
8
ENGRAVE_HATCH
10
0.000000
20
15.575000
30
0.0
11
2.525000
21
15.575000
31
0.0
0
LINE
8
ENGRAVE_HATCH
10
0.000000
20
15.775000
30
0.0
11
2.525000
21
15.775000
31
0.0
0
LINE
8
ENGRAVE_HATCH
10
0.000000
20
15.975000
30
0.0
11
2.525000
21
15.975000
31
0.0
0
LINE
8
ENGRAVE_HATCH
10
0.000000
20
16.175000
30
0.0
11
2.525000
21
16.175000
31
0.0
0
LINE
8
ENGRAVE_HATCH
10
0.000000
20
16.375000
30
0.0
11
2.525000
21
16.375000
31
0.0
0
LINE
8
ENGRAVE_HATCH
10
0.000000
20
16.575000
30
0.0
11
2.525000
21
16.575000
31
0.0
0
LINE
8
ENGRAVE_HATCH
10
0.000000
20
16.775000
30
0.0
11
2.525000
21
16.775000
31
0.0
0
LINE
8
ENGRAVE_HATCH
10
0.000000
20
16.975000
30
0.0
11
2.525000
21
16.975000
31
0.0
0
LINE
8
ENGRAVE_HATCH
10
0.000000
20
17.175000
30
0.0
11
2.525000
21
17.175000
31
0.0
0
LINE
8
ENGRAVE_HATCH
10
0.000000
20
17.375000
30
0.0
11
2.525000
21
17.375000
31
0.0
0
LINE
8
ENGRAVE_HATCH
10
0.000000
20
17.525000
30
0.0
11
2.525000
21
17.525000
31
0.0
0
LINE
8
ENGRAVE_HATCH
10
7.475000
20
14.975000
30
0.0
11
10.025000
21
14.975000
31
0.0
0
LINE
8
ENGRAVE_HATCH
10
7.475000
20
15.175000
30
0.0
11
10.025000
21
15.175000
31
0.0
0
LINE
8
ENGRAVE_HATCH
10
7.475000
20
15.375000
30
0.0
11
10.025000
21
15.375000
31
0.0
0
LINE
8
ENGRAVE_HATCH
10
7.475000
20
15.575000
30
0.0
11
10.025000
21
15.575000
31
0.0
0
LINE
8
ENGRAVE_HATCH
10
7.475000
20
15.775000
30
0.0
11
10.025000
21
15.775000
31
0.0
0
LINE
8
ENGRAVE_HATCH
10
7.475000
20
15.975000
30
0.0
11
10.025000
21
15.975000
31
0.0
0
LINE
8
ENGRAVE_HATCH
10
7.475000
20
16.175000
30
0.0
11
10.025000
21
16.175000
31
0.0
0
LINE
8
ENGRAVE_HATCH
10
7.475000
20
16.375000
30
0.0
11
10.025000
21
16.375000
31
0.0
0
LINE
8
ENGRAVE_HATCH
10
7.475000
20
16.575000
30
0.0
11
10.025000
21
16.575000
31
0.0
0
LINE
8
ENGRAVE_HATCH
10
7.475000
20
16.775000
30
0.0
11
10.025000
21
16.775000
31
0.0
0
LINE
8
ENGRAVE_HATCH
10
7.475000
20
16.975000
30
0.0
11
10.025000
21
16.975000
31
0.0
0
LINE
8
ENGRAVE_HATCH
10
7.475000
20
17.175000
30
0.0
11
10.025000
21
17.175000
31
0.0
0
LINE
8
ENGRAVE_HATCH
10
7.475000
20
17.375000
30
0.0
11
10.025000
21
17.375000
31
0.0
0
LINE
8
ENGRAVE_HATCH
10
7.475000
20
17.525000
30
0.0
11
10.025000
21
17.525000
31
0.0
0
LINE
8
ENGRAVE_HATCH
10
12.475000
20
14.975000
30
0.0
11
15.025000
21
14.975000
31
0.0
0
LINE
8
ENGRAVE_HATCH
10
12.475000
20
15.175000
30
0.0
11
15.025000
21
15.175000
31
0.0
0
LINE
8
ENGRAVE_HATCH
10
12.475000
20
15.375000
30
0.0
11
15.025000
21
15.375000
31
0.0
0
LINE
8
ENGRAVE_HATCH
10
12.475000
20
15.575000
30
0.0
11
15.025000
21
15.575000
31
0.0
0
LINE
8
ENGRAVE_HATCH
10
12.475000
20
15.775000
30
0.0
11
15.025000
21
15.775000
31
0.0
0
LINE
8
ENGRAVE_HATCH
10
12.475000
20
15.975000
30
0.0
11
15.025000
21
15.975000
31
0.0
0
LINE
8
ENGRAVE_HATCH
10
12.475000
20
16.175000
30
0.0
11
15.025000
21
16.175000
31
0.0
0
LINE
8
ENGRAVE_HATCH
10
12.475000
20
16.375000
30
0.0
11
15.025000
21
16.375000
31
0.0
0
LINE
8
ENGRAVE_HATCH
10
12.475000
20
16.575000
30
0.0
11
15.025000
21
16.575000
31
0.0
0
LINE
8
ENGRAVE_HATCH
10
12.475000
20
16.775000
30
0.0
11
15.025000
21
16.775000
31
0.0
0
LINE
8
ENGRAVE_HATCH
10
12.475000
20
16.975000
30
0.0
11
15.025000
21
16.975000
31
0.0
0
LINE
8
ENGRAVE_HATCH
10
12.475000
20
17.175000
30
0.0
11
15.025000
21
17.175000
31
0.0
0
LINE
8
ENGRAVE_HATCH
10
12.475000
20
17.375000
30
0.0
11
15.025000
21
17.375000
31
0.0
0
LINE
8
ENGRAVE_HATCH
10
12.475000
20
17.525000
30
0.0
11
15.025000
21
17.525000
31
0.0
0
LINE
8
ENGRAVE_HATCH
10
17.475000
20
14.975000
30
0.0
11
20.000000
21
14.975000
31
0.0
0
LINE
8
ENGRAVE_HATCH
10
17.475000
20
15.175000
30
0.0
11
20.000000
21
15.175000
31
0.0
0
LINE
8
ENGRAVE_HATCH
10
17.475000
20
15.375000
30
0.0
11
20.000000
21
15.375000
31
0.0
0
LINE
8
ENGRAVE_HATCH
10
17.475000
20
15.575000
30
0.0
11
20.000000
21
15.575000
31
0.0
0
LINE
8
ENGRAVE_HATCH
10
17.475000
20
15.775000
30
0.0
11
20.000000
21
15.775000
31
0.0
0
LINE
8
ENGRAVE_HATCH
10
17.475000
20
15.975000
30
0.0
11
20.000000
21
15.975000
31
0.0
0
LINE
8
ENGRAVE_HATCH
10
17.475000
20
16.175000
30
0.0
11
20.000000
21
16.175000
31
0.0
0
LINE
8
ENGRAVE_HATCH
10
17.475000
20
16.375000
30
0.0
11
20.000000
21
16.375000
31
0.0
0
LINE
8
ENGRAVE_HATCH
10
17.475000
20
16.575000
30
0.0
11
20.000000
21
16.575000
31
0.0
0
LINE
8
ENGRAVE_HATCH
10
17.475000
20
16.775000
30
0.0
11
20.000000
21
16.775000
31
0.0
0
LINE
8
ENGRAVE_HATCH
10
17.475000
20
16.975000
30
0.0
11
20.000000
21
16.975000
31
0.0
0
LINE
8
ENGRAVE_HATCH
10
17.475000
20
17.175000
30
0.0
11
20.000000
21
17.175000
31
0.0
0
LINE
8
ENGRAVE_HATCH
10
17.475000
20
17.375000
30
0.0
11
20.000000
21
17.375000
31
0.0
0
LINE
8
ENGRAVE_HATCH
10
17.475000
20
17.525000
30
0.0
11
20.000000
21
17.525000
31
0.0
0
LINE
8
ENGRAVE_HATCH
10
0.000000
20
12.475000
30
0.0
11
5.025000
21
12.475000
31
0.0
0
LINE
8
ENGRAVE_HATCH
10
0.000000
20
12.675000
30
0.0
11
5.025000
21
12.675000
31
0.0
0
LINE
8
ENGRAVE_HATCH
10
0.000000
20
12.875000
30
0.0
11
5.025000
21
12.875000
31
0.0
0
LINE
8
ENGRAVE_HATCH
10
0.000000
20
13.075000
30
0.0
11
5.025000
21
13.075000
31
0.0
0
LINE
8
ENGRAVE_HATCH
10
0.000000
20
13.275000
30
0.0
11
5.025000
21
13.275000
31
0.0
0
LINE
8
ENGRAVE_HATCH
10
0.000000
20
13.475000
30
0.0
11
5.025000
21
13.475000
31
0.0
0
LINE
8
ENGRAVE_HATCH
10
0.000000
20
13.675000
30
0.0
11
5.025000
21
13.675000
31
0.0
0
LINE
8
ENGRAVE_HATCH
10
0.000000
20
13.875000
30
0.0
11
5.025000
21
13.875000
31
0.0
0
LINE
8
ENGRAVE_HATCH
10
0.000000
20
14.075000
30
0.0
11
5.025000
21
14.075000
31
0.0
0
LINE
8
ENGRAVE_HATCH
10
0.000000
20
14.275000
30
0.0
11
5.025000
21
14.275000
31
0.0
0
LINE
8
ENGRAVE_HATCH
10
0.000000
20
14.475000
30
0.0
11
5.025000
21
14.475000
31
0.0
0
LINE
8
ENGRAVE_HATCH
10
0.000000
20
14.675000
30
0.0
11
5.025000
21
14.675000
31
0.0
0
LINE
8
ENGRAVE_HATCH
10
0.000000
20
14.875000
30
0.0
11
5.025000
21
14.875000
31
0.0
0
LINE
8
ENGRAVE_HATCH
10
0.000000
20
15.025000
30
0.0
11
5.025000
21
15.025000
31
0.0
0
LINE
8
ENGRAVE_HATCH
10
12.475000
20
12.475000
30
0.0
11
15.025000
21
12.475000
31
0.0
0
LINE
8
ENGRAVE_HATCH
10
12.475000
20
12.675000
30
0.0
11
15.025000
21
12.675000
31
0.0
0
LINE
8
ENGRAVE_HATCH
10
12.475000
20
12.875000
30
0.0
11
15.025000
21
12.875000
31
0.0
0
LINE
8
ENGRAVE_HATCH
10
12.475000
20
13.075000
30
0.0
11
15.025000
21
13.075000
31
0.0
0
LINE
8
ENGRAVE_HATCH
10
12.475000
20
13.275000
30
0.0
11
15.025000
21
13.275000
31
0.0
0
LINE
8
ENGRAVE_HATCH
10
12.475000
20
13.475000
30
0.0
11
15.025000
21
13.475000
31
0.0
0
LINE
8
ENGRAVE_HATCH
10
12.475000
20
13.675000
30
0.0
11
15.025000
21
13.675000
31
0.0
0
LINE
8
ENGRAVE_HATCH
10
12.475000
20
13.875000
30
0.0
11
15.025000
21
13.875000
31
0.0
0
LINE
8
ENGRAVE_HATCH
10
12.475000
20
14.075000
30
0.0
11
15.025000
21
14.075000
31
0.0
0
LINE
8
ENGRAVE_HATCH
10
12.475000
20
14.275000
30
0.0
11
15.025000
21
14.275000
31
0.0
0
LINE
8
ENGRAVE_HATCH
10
12.475000
20
14.475000
30
0.0
11
15.025000
21
14.475000
31
0.0
0
LINE
8
ENGRAVE_HATCH
10
12.475000
20
14.675000
30
0.0
11
15.025000
21
14.675000
31
0.0
0
LINE
8
ENGRAVE_HATCH
10
12.475000
20
14.875000
30
0.0
11
15.025000
21
14.875000
31
0.0
0
LINE
8
ENGRAVE_HATCH
10
12.475000
20
15.025000
30
0.0
11
15.025000
21
15.025000
31
0.0
0
LINE
8
ENGRAVE_HATCH
10
17.475000
20
12.475000
30
0.0
11
20.000000
21
12.475000
31
0.0
0
LINE
8
ENGRAVE_HATCH
10
17.475000
20
12.675000
30
0.0
11
20.000000
21
12.675000
31
0.0
0
LINE
8
ENGRAVE_HATCH
10
17.475000
20
12.875000
30
0.0
11
20.000000
21
12.875000
31
0.0
0
LINE
8
ENGRAVE_HATCH
10
17.475000
20
13.075000
30
0.0
11
20.000000
21
13.075000
31
0.0
0
LINE
8
ENGRAVE_HATCH
10
17.475000
20
13.275000
30
0.0
11
20.000000
21
13.275000
31
0.0
0
LINE
8
ENGRAVE_HATCH
10
17.475000
20
13.475000
30
0.0
11
20.000000
21
13.475000
31
0.0
0
LINE
8
ENGRAVE_HATCH
10
17.475000
20
13.675000
30
0.0
11
20.000000
21
13.675000
31
0.0
0
LINE
8
ENGRAVE_HATCH
10
17.475000
20
13.875000
30
0.0
11
20.000000
21
13.875000
31
0.0
0
LINE
8
ENGRAVE_HATCH
10
17.475000
20
14.075000
30
0.0
11
20.000000
21
14.075000
31
0.0
0
LINE
8
ENGRAVE_HATCH
10
17.475000
20
14.275000
30
0.0
11
20.000000
21
14.275000
31
0.0
0
LINE
8
ENGRAVE_HATCH
10
17.475000
20
14.475000
30
0.0
11
20.000000
21
14.475000
31
0.0
0
LINE
8
ENGRAVE_HATCH
10
17.475000
20
14.675000
30
0.0
11
20.000000
21
14.675000
31
0.0
0
LINE
8
ENGRAVE_HATCH
10
17.475000
20
14.875000
30
0.0
11
20.000000
21
14.875000
31
0.0
0
LINE
8
ENGRAVE_HATCH
10
17.475000
20
15.025000
30
0.0
11
20.000000
21
15.025000
31
0.0
0
LINE
8
ENGRAVE_HATCH
10
0.000000
20
9.975000
30
0.0
11
5.025000
21
9.975000
31
0.0
0
LINE
8
ENGRAVE_HATCH
10
0.000000
20
10.175000
30
0.0
11
5.025000
21
10.175000
31
0.0
0
LINE
8
ENGRAVE_HATCH
10
0.000000
20
10.375000
30
0.0
11
5.025000
21
10.375000
31
0.0
0
LINE
8
ENGRAVE_HATCH
10
0.000000
20
10.575000
30
0.0
11
5.025000
21
10.575000
31
0.0
0
LINE
8
ENGRAVE_HATCH
10
0.000000
20
10.775000
30
0.0
11
5.025000
21
10.775000
31
0.0
0
LINE
8
ENGRAVE_HATCH
10
0.000000
20
10.975000
30
0.0
11
5.025000
21
10.975000
31
0.0
0
LINE
8
ENGRAVE_HATCH
10
0.000000
20
11.175000
30
0.0
11
5.025000
21
11.175000
31
0.0
0
LINE
8
ENGRAVE_HATCH
10
0.000000
20
11.375000
30
0.0
11
5.025000
21
11.375000
31
0.0
0
LINE
8
ENGRAVE_HATCH
10
0.000000
20
11.575000
30
0.0
11
5.025000
21
11.575000
31
0.0
0
LINE
8
ENGRAVE_HATCH
10
0.000000
20
11.775000
30
0.0
11
5.025000
21
11.775000
31
0.0
0
LINE
8
ENGRAVE_HATCH
10
0.000000
20
11.975000
30
0.0
11
5.025000
21
11.975000
31
0.0
0
LINE
8
ENGRAVE_HATCH
10
0.000000
20
12.175000
30
0.0
11
5.025000
21
12.175000
31
0.0
0
LINE
8
ENGRAVE_HATCH
10
0.000000
20
12.375000
30
0.0
11
5.025000
21
12.375000
31
0.0
0
LINE
8
ENGRAVE_HATCH
10
0.000000
20
12.525000
30
0.0
11
5.025000
21
12.525000
31
0.0
0
LINE
8
ENGRAVE_HATCH
10
9.975000
20
9.975000
30
0.0
11
20.000000
21
9.975000
31
0.0
0
LINE
8
ENGRAVE_HATCH
10
9.975000
20
10.175000
30
0.0
11
20.000000
21
10.175000
31
0.0
0
LINE
8
ENGRAVE_HATCH
10
9.975000
20
10.375000
30
0.0
11
20.000000
21
10.375000
31
0.0
0
LINE
8
ENGRAVE_HATCH
10
9.975000
20
10.575000
30
0.0
11
20.000000
21
10.575000
31
0.0
0
LINE
8
ENGRAVE_HATCH
10
9.975000
20
10.775000
30
0.0
11
20.000000
21
10.775000
31
0.0
0
LINE
8
ENGRAVE_HATCH
10
9.975000
20
10.975000
30
0.0
11
20.000000
21
10.975000
31
0.0
0
LINE
8
ENGRAVE_HATCH
10
9.975000
20
11.175000
30
0.0
11
20.000000
21
11.175000
31
0.0
0
LINE
8
ENGRAVE_HATCH
10
9.975000
20
11.375000
30
0.0
11
20.000000
21
11.375000
31
0.0
0
LINE
8
ENGRAVE_HATCH
10
9.975000
20
11.575000
30
0.0
11
20.000000
21
11.575000
31
0.0
0
LINE
8
ENGRAVE_HATCH
10
9.975000
20
11.775000
30
0.0
11
20.000000
21
11.775000
31
0.0
0
LINE
8
ENGRAVE_HATCH
10
9.975000
20
11.975000
30
0.0
11
20.000000
21
11.975000
31
0.0
0
LINE
8
ENGRAVE_HATCH
10
9.975000
20
12.175000
30
0.0
11
20.000000
21
12.175000
31
0.0
0
LINE
8
ENGRAVE_HATCH
10
9.975000
20
12.375000
30
0.0
11
20.000000
21
12.375000
31
0.0
0
LINE
8
ENGRAVE_HATCH
10
9.975000
20
12.525000
30
0.0
11
20.000000
21
12.525000
31
0.0
0
LINE
8
ENGRAVE_HATCH
10
0.000000
20
7.475000
30
0.0
11
2.525000
21
7.475000
31
0.0
0
LINE
8
ENGRAVE_HATCH
10
0.000000
20
7.675000
30
0.0
11
2.525000
21
7.675000
31
0.0
0
LINE
8
ENGRAVE_HATCH
10
0.000000
20
7.875000
30
0.0
11
2.525000
21
7.875000
31
0.0
0
LINE
8
ENGRAVE_HATCH
10
0.000000
20
8.075000
30
0.0
11
2.525000
21
8.075000
31
0.0
0
LINE
8
ENGRAVE_HATCH
10
0.000000
20
8.275000
30
0.0
11
2.525000
21
8.275000
31
0.0
0
LINE
8
ENGRAVE_HATCH
10
0.000000
20
8.475000
30
0.0
11
2.525000
21
8.475000
31
0.0
0
LINE
8
ENGRAVE_HATCH
10
0.000000
20
8.675000
30
0.0
11
2.525000
21
8.675000
31
0.0
0
LINE
8
ENGRAVE_HATCH
10
0.000000
20
8.875000
30
0.0
11
2.525000
21
8.875000
31
0.0
0
LINE
8
ENGRAVE_HATCH
10
0.000000
20
9.075000
30
0.0
11
2.525000
21
9.075000
31
0.0
0
LINE
8
ENGRAVE_HATCH
10
0.000000
20
9.275000
30
0.0
11
2.525000
21
9.275000
31
0.0
0
LINE
8
ENGRAVE_HATCH
10
0.000000
20
9.475000
30
0.0
11
2.525000
21
9.475000
31
0.0
0
LINE
8
ENGRAVE_HATCH
10
0.000000
20
9.675000
30
0.0
11
2.525000
21
9.675000
31
0.0
0
LINE
8
ENGRAVE_HATCH
10
0.000000
20
9.875000
30
0.0
11
2.525000
21
9.875000
31
0.0
0
LINE
8
ENGRAVE_HATCH
10
0.000000
20
10.025000
30
0.0
11
2.525000
21
10.025000
31
0.0
0
LINE
8
ENGRAVE_HATCH
10
4.975000
20
7.475000
30
0.0
11
7.525000
21
7.475000
31
0.0
0
LINE
8
ENGRAVE_HATCH
10
4.975000
20
7.675000
30
0.0
11
7.525000
21
7.675000
31
0.0
0
LINE
8
ENGRAVE_HATCH
10
4.975000
20
7.875000
30
0.0
11
7.525000
21
7.875000
31
0.0
0
LINE
8
ENGRAVE_HATCH
10
4.975000
20
8.075000
30
0.0
11
7.525000
21
8.075000
31
0.0
0
LINE
8
ENGRAVE_HATCH
10
4.975000
20
8.275000
30
0.0
11
7.525000
21
8.275000
31
0.0
0
LINE
8
ENGRAVE_HATCH
10
4.975000
20
8.475000
30
0.0
11
7.525000
21
8.475000
31
0.0
0
LINE
8
ENGRAVE_HATCH
10
4.975000
20
8.675000
30
0.0
11
7.525000
21
8.675000
31
0.0
0
LINE
8
ENGRAVE_HATCH
10
4.975000
20
8.875000
30
0.0
11
7.525000
21
8.875000
31
0.0
0
LINE
8
ENGRAVE_HATCH
10
4.975000
20
9.075000
30
0.0
11
7.525000
21
9.075000
31
0.0
0
LINE
8
ENGRAVE_HATCH
10
4.975000
20
9.275000
30
0.0
11
7.525000
21
9.275000
31
0.0
0
LINE
8
ENGRAVE_HATCH
10
4.975000
20
9.475000
30
0.0
11
7.525000
21
9.475000
31
0.0
0
LINE
8
ENGRAVE_HATCH
10
4.975000
20
9.675000
30
0.0
11
7.525000
21
9.675000
31
0.0
0
LINE
8
ENGRAVE_HATCH
10
4.975000
20
9.875000
30
0.0
11
7.525000
21
9.875000
31
0.0
0
LINE
8
ENGRAVE_HATCH
10
4.975000
20
10.025000
30
0.0
11
7.525000
21
10.025000
31
0.0
0
LINE
8
ENGRAVE_HATCH
10
9.975000
20
7.475000
30
0.0
11
20.000000
21
7.475000
31
0.0
0
LINE
8
ENGRAVE_HATCH
10
9.975000
20
7.675000
30
0.0
11
20.000000
21
7.675000
31
0.0
0
LINE
8
ENGRAVE_HATCH
10
9.975000
20
7.875000
30
0.0
11
20.000000
21
7.875000
31
0.0
0
LINE
8
ENGRAVE_HATCH
10
9.975000
20
8.075000
30
0.0
11
20.000000
21
8.075000
31
0.0
0
LINE
8
ENGRAVE_HATCH
10
9.975000
20
8.275000
30
0.0
11
20.000000
21
8.275000
31
0.0
0
LINE
8
ENGRAVE_HATCH
10
9.975000
20
8.475000
30
0.0
11
20.000000
21
8.475000
31
0.0
0
LINE
8
ENGRAVE_HATCH
10
9.975000
20
8.675000
30
0.0
11
20.000000
21
8.675000
31
0.0
0
LINE
8
ENGRAVE_HATCH
10
9.975000
20
8.875000
30
0.0
11
20.000000
21
8.875000
31
0.0
0
LINE
8
ENGRAVE_HATCH
10
9.975000
20
9.075000
30
0.0
11
20.000000
21
9.075000
31
0.0
0
LINE
8
ENGRAVE_HATCH
10
9.975000
20
9.275000
30
0.0
11
20.000000
21
9.275000
31
0.0
0
LINE
8
ENGRAVE_HATCH
10
9.975000
20
9.475000
30
0.0
11
20.000000
21
9.475000
31
0.0
0
LINE
8
ENGRAVE_HATCH
10
9.975000
20
9.675000
30
0.0
11
20.000000
21
9.675000
31
0.0
0
LINE
8
ENGRAVE_HATCH
10
9.975000
20
9.875000
30
0.0
11
20.000000
21
9.875000
31
0.0
0
LINE
8
ENGRAVE_HATCH
10
9.975000
20
10.025000
30
0.0
11
20.000000
21
10.025000
31
0.0
0
LINE
8
ENGRAVE_HATCH
10
0.000000
20
4.975000
30
0.0
11
5.025000
21
4.975000
31
0.0
0
LINE
8
ENGRAVE_HATCH
10
0.000000
20
5.175000
30
0.0
11
5.025000
21
5.175000
31
0.0
0
LINE
8
ENGRAVE_HATCH
10
0.000000
20
5.375000
30
0.0
11
5.025000
21
5.375000
31
0.0
0
LINE
8
ENGRAVE_HATCH
10
0.000000
20
5.575000
30
0.0
11
5.025000
21
5.575000
31
0.0
0
LINE
8
ENGRAVE_HATCH
10
0.000000
20
5.775000
30
0.0
11
5.025000
21
5.775000
31
0.0
0
LINE
8
ENGRAVE_HATCH
10
0.000000
20
5.975000
30
0.0
11
5.025000
21
5.975000
31
0.0
0
LINE
8
ENGRAVE_HATCH
10
0.000000
20
6.175000
30
0.0
11
5.025000
21
6.175000
31
0.0
0
LINE
8
ENGRAVE_HATCH
10
0.000000
20
6.375000
30
0.0
11
5.025000
21
6.375000
31
0.0
0
LINE
8
ENGRAVE_HATCH
10
0.000000
20
6.575000
30
0.0
11
5.025000
21
6.575000
31
0.0
0
LINE
8
ENGRAVE_HATCH
10
0.000000
20
6.775000
30
0.0
11
5.025000
21
6.775000
31
0.0
0
LINE
8
ENGRAVE_HATCH
10
0.000000
20
6.975000
30
0.0
11
5.025000
21
6.975000
31
0.0
0
LINE
8
ENGRAVE_HATCH
10
0.000000
20
7.175000
30
0.0
11
5.025000
21
7.175000
31
0.0
0
LINE
8
ENGRAVE_HATCH
10
0.000000
20
7.375000
30
0.0
11
5.025000
21
7.375000
31
0.0
0
LINE
8
ENGRAVE_HATCH
10
0.000000
20
7.525000
30
0.0
11
5.025000
21
7.525000
31
0.0
0
LINE
8
ENGRAVE_HATCH
10
7.475000
20
4.975000
30
0.0
11
10.025000
21
4.975000
31
0.0
0
LINE
8
ENGRAVE_HATCH
10
7.475000
20
5.175000
30
0.0
11
10.025000
21
5.175000
31
0.0
0
LINE
8
ENGRAVE_HATCH
10
7.475000
20
5.375000
30
0.0
11
10.025000
21
5.375000
31
0.0
0
LINE
8
ENGRAVE_HATCH
10
7.475000
20
5.575000
30
0.0
11
10.025000
21
5.575000
31
0.0
0
LINE
8
ENGRAVE_HATCH
10
7.475000
20
5.775000
30
0.0
11
10.025000
21
5.775000
31
0.0
0
LINE
8
ENGRAVE_HATCH
10
7.475000
20
5.975000
30
0.0
11
10.025000
21
5.975000
31
0.0
0
LINE
8
ENGRAVE_HATCH
10
7.475000
20
6.175000
30
0.0
11
10.025000
21
6.175000
31
0.0
0
LINE
8
ENGRAVE_HATCH
10
7.475000
20
6.375000
30
0.0
11
10.025000
21
6.375000
31
0.0
0
LINE
8
ENGRAVE_HATCH
10
7.475000
20
6.575000
30
0.0
11
10.025000
21
6.575000
31
0.0
0
LINE
8
ENGRAVE_HATCH
10
7.475000
20
6.775000
30
0.0
11
10.025000
21
6.775000
31
0.0
0
LINE
8
ENGRAVE_HATCH
10
7.475000
20
6.975000
30
0.0
11
10.025000
21
6.975000
31
0.0
0
LINE
8
ENGRAVE_HATCH
10
7.475000
20
7.175000
30
0.0
11
10.025000
21
7.175000
31
0.0
0
LINE
8
ENGRAVE_HATCH
10
7.475000
20
7.375000
30
0.0
11
10.025000
21
7.375000
31
0.0
0
LINE
8
ENGRAVE_HATCH
10
7.475000
20
7.525000
30
0.0
11
10.025000
21
7.525000
31
0.0
0
LINE
8
ENGRAVE_HATCH
10
14.975000
20
4.975000
30
0.0
11
20.000000
21
4.975000
31
0.0
0
LINE
8
ENGRAVE_HATCH
10
14.975000
20
5.175000
30
0.0
11
20.000000
21
5.175000
31
0.0
0
LINE
8
ENGRAVE_HATCH
10
14.975000
20
5.375000
30
0.0
11
20.000000
21
5.375000
31
0.0
0
LINE
8
ENGRAVE_HATCH
10
14.975000
20
5.575000
30
0.0
11
20.000000
21
5.575000
31
0.0
0
LINE
8
ENGRAVE_HATCH
10
14.975000
20
5.775000
30
0.0
11
20.000000
21
5.775000
31
0.0
0
LINE
8
ENGRAVE_HATCH
10
14.975000
20
5.975000
30
0.0
11
20.000000
21
5.975000
31
0.0
0
LINE
8
ENGRAVE_HATCH
10
14.975000
20
6.175000
30
0.0
11
20.000000
21
6.175000
31
0.0
0
LINE
8
ENGRAVE_HATCH
10
14.975000
20
6.375000
30
0.0
11
20.000000
21
6.375000
31
0.0
0
LINE
8
ENGRAVE_HATCH
10
14.975000
20
6.575000
30
0.0
11
20.000000
21
6.575000
31
0.0
0
LINE
8
ENGRAVE_HATCH
10
14.975000
20
6.775000
30
0.0
11
20.000000
21
6.775000
31
0.0
0
LINE
8
ENGRAVE_HATCH
10
14.975000
20
6.975000
30
0.0
11
20.000000
21
6.975000
31
0.0
0
LINE
8
ENGRAVE_HATCH
10
14.975000
20
7.175000
30
0.0
11
20.000000
21
7.175000
31
0.0
0
LINE
8
ENGRAVE_HATCH
10
14.975000
20
7.375000
30
0.0
11
20.000000
21
7.375000
31
0.0
0
LINE
8
ENGRAVE_HATCH
10
14.975000
20
7.525000
30
0.0
11
20.000000
21
7.525000
31
0.0
0
LINE
8
ENGRAVE_HATCH
10
0.000000
20
2.475000
30
0.0
11
10.025000
21
2.475000
31
0.0
0
LINE
8
ENGRAVE_HATCH
10
0.000000
20
2.675000
30
0.0
11
10.025000
21
2.675000
31
0.0
0
LINE
8
ENGRAVE_HATCH
10
0.000000
20
2.875000
30
0.0
11
10.025000
21
2.875000
31
0.0
0
LINE
8
ENGRAVE_HATCH
10
0.000000
20
3.075000
30
0.0
11
10.025000
21
3.075000
31
0.0
0
LINE
8
ENGRAVE_HATCH
10
0.000000
20
3.275000
30
0.0
11
10.025000
21
3.275000
31
0.0
0
LINE
8
ENGRAVE_HATCH
10
0.000000
20
3.475000
30
0.0
11
10.025000
21
3.475000
31
0.0
0
LINE
8
ENGRAVE_HATCH
10
0.000000
20
3.675000
30
0.0
11
10.025000
21
3.675000
31
0.0
0
LINE
8
ENGRAVE_HATCH
10
0.000000
20
3.875000
30
0.0
11
10.025000
21
3.875000
31
0.0
0
LINE
8
ENGRAVE_HATCH
10
0.000000
20
4.075000
30
0.0
11
10.025000
21
4.075000
31
0.0
0
LINE
8
ENGRAVE_HATCH
10
0.000000
20
4.275000
30
0.0
11
10.025000
21
4.275000
31
0.0
0
LINE
8
ENGRAVE_HATCH
10
0.000000
20
4.475000
30
0.0
11
10.025000
21
4.475000
31
0.0
0
LINE
8
ENGRAVE_HATCH
10
0.000000
20
4.675000
30
0.0
11
10.025000
21
4.675000
31
0.0
0
LINE
8
ENGRAVE_HATCH
10
0.000000
20
4.875000
30
0.0
11
10.025000
21
4.875000
31
0.0
0
LINE
8
ENGRAVE_HATCH
10
0.000000
20
5.025000
30
0.0
11
10.025000
21
5.025000
31
0.0
0
LINE
8
ENGRAVE_HATCH
10
12.475000
20
2.475000
30
0.0
11
20.000000
21
2.475000
31
0.0
0
LINE
8
ENGRAVE_HATCH
10
12.475000
20
2.675000
30
0.0
11
20.000000
21
2.675000
31
0.0
0
LINE
8
ENGRAVE_HATCH
10
12.475000
20
2.875000
30
0.0
11
20.000000
21
2.875000
31
0.0
0
LINE
8
ENGRAVE_HATCH
10
12.475000
20
3.075000
30
0.0
11
20.000000
21
3.075000
31
0.0
0
LINE
8
ENGRAVE_HATCH
10
12.475000
20
3.275000
30
0.0
11
20.000000
21
3.275000
31
0.0
0
LINE
8
ENGRAVE_HATCH
10
12.475000
20
3.475000
30
0.0
11
20.000000
21
3.475000
31
0.0
0
LINE
8
ENGRAVE_HATCH
10
12.475000
20
3.675000
30
0.0
11
20.000000
21
3.675000
31
0.0
0
LINE
8
ENGRAVE_HATCH
10
12.475000
20
3.875000
30
0.0
11
20.000000
21
3.875000
31
0.0
0
LINE
8
ENGRAVE_HATCH
10
12.475000
20
4.075000
30
0.0
11
20.000000
21
4.075000
31
0.0
0
LINE
8
ENGRAVE_HATCH
10
12.475000
20
4.275000
30
0.0
11
20.000000
21
4.275000
31
0.0
0
LINE
8
ENGRAVE_HATCH
10
12.475000
20
4.475000
30
0.0
11
20.000000
21
4.475000
31
0.0
0
LINE
8
ENGRAVE_HATCH
10
12.475000
20
4.675000
30
0.0
11
20.000000
21
4.675000
31
0.0
0
LINE
8
ENGRAVE_HATCH
10
12.475000
20
4.875000
30
0.0
11
20.000000
21
4.875000
31
0.0
0
LINE
8
ENGRAVE_HATCH
10
12.475000
20
5.025000
30
0.0
11
20.000000
21
5.025000
31
0.0
0
LINE
8
ENGRAVE_HATCH
10
0.000000
20
0.000000
30
0.0
11
20.000000
21
0.000000
31
0.0
0
LINE
8
ENGRAVE_HATCH
10
0.000000
20
0.200000
30
0.0
11
20.000000
21
0.200000
31
0.0
0
LINE
8
ENGRAVE_HATCH
10
0.000000
20
0.400000
30
0.0
11
20.000000
21
0.400000
31
0.0
0
LINE
8
ENGRAVE_HATCH
10
0.000000
20
0.600000
30
0.0
11
20.000000
21
0.600000
31
0.0
0
LINE
8
ENGRAVE_HATCH
10
0.000000
20
0.800000
30
0.0
11
20.000000
21
0.800000
31
0.0
0
LINE
8
ENGRAVE_HATCH
10
0.000000
20
1.000000
30
0.0
11
20.000000
21
1.000000
31
0.0
0
LINE
8
ENGRAVE_HATCH
10
0.000000
20
1.200000
30
0.0
11
20.000000
21
1.200000
31
0.0
0
LINE
8
ENGRAVE_HATCH
10
0.000000
20
1.400000
30
0.0
11
20.000000
21
1.400000
31
0.0
0
LINE
8
ENGRAVE_HATCH
10
0.000000
20
1.600000
30
0.0
11
20.000000
21
1.600000
31
0.0
0
LINE
8
ENGRAVE_HATCH
10
0.000000
20
1.800000
30
0.0
11
20.000000
21
1.800000
31
0.0
0
LINE
8
ENGRAVE_HATCH
10
0.000000
20
2.000000
30
0.0
11
20.000000
21
2.000000
31
0.0
0
LINE
8
ENGRAVE_HATCH
10
0.000000
20
2.200000
30
0.0
11
20.000000
21
2.200000
31
0.0
0
LINE
8
ENGRAVE_HATCH
10
0.000000
20
2.400000
30
0.0
11
20.000000
21
2.400000
31
0.0
0
LINE
8
ENGRAVE_HATCH
10
0.000000
20
2.525000
30
0.0
11
20.000000
21
2.525000
31
0.0
0
ENDSEC
0
EOF
