0
SECTION
2
HEADER
9
$ACADVER
1
AC1009
9
$INSUNITS
70
4
0
ENDSEC
0
SECTION
2
TABLES
0
TABLE
2
LAYER
70
2
0
LAYER
2
OUTER_20MM
70
0
62
1
6
CONTINUOUS
0
LAYER
2
WHITE_CLOSED
70
0
62
7
6
CONTINUOUS
0
ENDTAB
0
ENDSEC
0
SECTION
2
ENTITIES
0
POLYLINE
8
OUTER_20MM
66
1
70
1
0
VERTEX
8
OUTER_20MM
10
0.000000
20
0.000000
30
0.0
0
VERTEX
8
OUTER_20MM
10
20.000000
20
0.000000
30
0.0
0
VERTEX
8
OUTER_20MM
10
20.000000
20
20.000000
30
0.0
0
VERTEX
8
OUTER_20MM
10
0.000000
20
20.000000
30
0.0
0
SEQEND
0
POLYLINE
8
WHITE_CLOSED
66
1
70
1
0
VERTEX
8
WHITE_CLOSED
10
2.500000
20
17.500000
30
0.0
0
VERTEX
8
WHITE_CLOSED
10
5.000000
20
17.500000
30
0.0
0
VERTEX
8
WHITE_CLOSED
10
7.500000
20
17.500000
30
0.0
0
VERTEX
8
WHITE_CLOSED
10
7.500000
20
15.000000
30
0.0
0
VERTEX
8
WHITE_CLOSED
10
10.000000
20
15.000000
30
0.0
0
VERTEX
8
WHITE_CLOSED
10
10.000000
20
17.500000
30
0.0
0
VERTEX
8
WHITE_CLOSED
10
12.500000
20
17.500000
30
0.0
0
VERTEX
8
WHITE_CLOSED
10
12.500000
20
15.000000
30
0.0
0
VERTEX
8
WHITE_CLOSED
10
12.500000
20
12.500000
30
0.0
0
VERTEX
8
WHITE_CLOSED
10
10.000000
20
12.500000
30
0.0
0
VERTEX
8
WHITE_CLOSED
10
10.000000
20
10.000000
30
0.0
0
VERTEX
8
WHITE_CLOSED
10
10.000000
20
7.500000
30
0.0
0
VERTEX
8
WHITE_CLOSED
10
7.500000
20
7.500000
30
0.0
0
VERTEX
8
WHITE_CLOSED
10
7.500000
20
10.000000
30
0.0
0
VERTEX
8
WHITE_CLOSED
10
5.000000
20
10.000000
30
0.0
0
VERTEX
8
WHITE_CLOSED
10
5.000000
20
12.500000
30
0.0
0
VERTEX
8
WHITE_CLOSED
10
5.000000
20
15.000000
30
0.0
0
VERTEX
8
WHITE_CLOSED
10
2.500000
20
15.000000
30
0.0
0
SEQEND
0
POLYLINE
8
WHITE_CLOSED
66
1
70
1
0
VERTEX
8
WHITE_CLOSED
10
15.000000
20
17.500000
30
0.0
0
VERTEX
8
WHITE_CLOSED
10
17.500000
20
17.500000
30
0.0
0
VERTEX
8
WHITE_CLOSED
10
17.500000
20
15.000000
30
0.0
0
VERTEX
8
WHITE_CLOSED
10
17.500000
20
12.500000
30
0.0
0
VERTEX
8
WHITE_CLOSED
10
15.000000
20
12.500000
30
0.0
0
VERTEX
8
WHITE_CLOSED
10
15.000000
20
15.000000
30
0.0
0
SEQEND
0
POLYLINE
8
WHITE_CLOSED
66
1
70
1
0
VERTEX
8
WHITE_CLOSED
10
2.500000
20
10.000000
30
0.0
0
VERTEX
8
WHITE_CLOSED
10
5.000000
20
10.000000
30
0.0
0
VERTEX
8
WHITE_CLOSED
10
5.000000
20
7.500000
30
0.0
0
VERTEX
8
WHITE_CLOSED
10
2.500000
20
7.500000
30
0.0
0
SEQEND
0
POLYLINE
8
WHITE_CLOSED
66
1
70
1
0
VERTEX
8
WHITE_CLOSED
10
5.000000
20
7.500000
30
0.0
0
VERTEX
8
WHITE_CLOSED
10
7.500000
20
7.500000
30
0.0
0
VERTEX
8
WHITE_CLOSED
10
7.500000
20
5.000000
30
0.0
0
VERTEX
8
WHITE_CLOSED
10
5.000000
20
5.000000
30
0.0
0
SEQEND
0
POLYLINE
8
WHITE_CLOSED
66
1
70
1
0
VERTEX
8
WHITE_CLOSED
10
10.000000
20
7.500000
30
0.0
0
VERTEX
8
WHITE_CLOSED
10
12.500000
20
7.500000
30
0.0
0
VERTEX
8
WHITE_CLOSED
10
15.000000
20
7.500000
30
0.0
0
VERTEX
8
WHITE_CLOSED
10
15.000000
20
5.000000
30
0.0
0
VERTEX
8
WHITE_CLOSED
10
12.500000
20
5.000000
30
0.0
0
VERTEX
8
WHITE_CLOSED
10
12.500000
20
2.500000
30
0.0
0
VERTEX
8
WHITE_CLOSED
10
10.000000
20
2.500000
30
0.0
0
VERTEX
8
WHITE_CLOSED
10
10.000000
20
5.000000
30
0.0
0
SEQEND
0
ENDSEC
0
EOF
